<?xml version="1.0" standalone="no"?>
<!DOCTYPE svg PUBLIC "-//W3C//DTD SVG 20010904//EN"
 "http://www.w3.org/TR/2001/REC-SVG-20010904/DTD/svg10.dtd">
<svg version="1.0" xmlns="http://www.w3.org/2000/svg"
 width="700.000000pt" height="700.000000pt" viewBox="0 0 700.000000 700.000000"
 preserveAspectRatio="xMidYMid meet">
<metadata>
Created by potrace 1.11, written by Peter Selinger 2001-2013
</metadata>
<g transform="translate(0.000000,700.000000) scale(0.100000,-0.100000)"
fill="#000000" stroke="none">
<path d="M687 5144 c-1 -1 -47 -5 -102 -8 -56 -4 -110 -8 -120 -10 -11 -2 -47
-7 -80 -11 -65 -8 -100 -22 -127 -51 -21 -24 -114 -344 -144 -497 -2 -10 -5
-26 -8 -35 -3 -9 -7 -33 -10 -52 -8 -51 -16 -92 -21 -116 -9 -40 -36 -230 -41
-284 -2 -30 -7 -69 -9 -85 -20 -124 -27 -651 -12 -850 7 -96 22 -243 31 -295
2 -14 7 -52 11 -85 4 -33 9 -69 11 -80 2 -11 7 -33 10 -50 19 -106 58 -291 75
-352 11 -40 22 -83 24 -95 6 -29 53 -183 67 -221 6 -15 23 -36 38 -47 28 -20
41 -23 145 -35 33 -4 71 -9 85 -11 157 -24 489 -23 694 2 80 9 217 33 281 48
11 2 43 9 70 16 118 26 345 101 443 146 29 13 55 24 58 24 6 0 201 97 259 130
115 63 427 276 455 309 3 3 36 33 74 65 l68 60 622 0 c600 1 624 2 659 21 l37
19 32 -32 c18 -17 78 -66 133 -108 55 -42 100 -79 100 -83 -1 -3 -7 -25 -14
-48 -15 -46 -5 -87 27 -116 35 -30 370 -190 532 -254 63 -25 124 -49 135 -53
11 -5 29 -11 40 -13 11 -3 52 -15 90 -26 79 -24 267 -66 335 -76 25 -3 56 -8
70 -10 14 -2 48 -7 75 -10 28 -3 61 -8 75 -10 105 -16 427 -24 540 -13 279 26
334 42 358 105 24 62 114 390 127 465 3 15 12 59 20 97 15 70 33 178 41 241 3
19 7 45 9 58 2 13 7 56 10 95 4 40 9 83 11 97 12 72 19 273 18 505 -1 287 -9
436 -34 605 -5 36 -12 83 -15 105 -3 22 -10 67 -15 100 -9 55 -14 82 -25 140
-20 109 -93 399 -120 474 -8 24 -15 51 -15 60 0 9 -13 33 -30 53 -27 32 -38
37 -102 48 -40 6 -84 13 -98 16 -128 22 -681 22 -718 1 -4 -3 -38 -8 -75 -12
-37 -3 -78 -8 -90 -11 -584 -112 -1037 -326 -1487 -703 l-85 -71 -587 0 c-462
0 -589 3 -600 13 -39 38 -195 163 -274 220 -270 193 -636 377 -904 453 -185
52 -332 83 -465 99 -27 4 -57 8 -65 10 -40 11 -493 28 -503 19z"/>
</g>
</svg>
