<?xml version="1.0" ?><svg baseProfile="tiny" height="512px" id="Layer_1" version="1.2" viewBox="0 0 512 512" width="512px" xml:space="preserve" xmlns="http://www.w3.org/2000/svg" xmlns:xlink="http://www.w3.org/1999/xlink"><g><path d="M436.337,74.304L75.448,437.481C28.843,391.11,0,326.921,0,255.995C0,114.62,114.615,0.005,256,0.005   C326.347,0.005,390.068,28.381,436.337,74.304z" fill="#F57F17"/><path d="M512,255.995c0,7.746-0.346,15.407-1.019,22.966L371.373,139.679l64.964-65.375   C483.063,120.684,512,184.967,512,255.995z" fill="#FFA000"/><path d="M279.592,510.92c-7.764,0.71-15.641,1.075-23.592,1.075c-70.459,0-134.265-28.471-180.552-74.514   l64.965-65.386L279.592,510.92z" fill="#FFA000"/><path d="M510.981,278.961c-10.923,122.856-108.627,220.747-231.39,231.959L140.413,372.096l230.96-232.417   L510.981,278.961z" fill="#FF8F00"/><g><polygon fill="#F5F5F5" points="371.373,139.68 371.373,255.999 256,372.119 256,255.999   "/><polygon fill="#E2E2E2" points="256,255.999 256,372.119 140.422,255.999 140.422,139.68   "/><polygon fill="#D3D3D3" points="256,372.119 140.422,372.119 140.422,255.999   "/><polygon fill="#D3D3D3" points="371.373,255.999 371.373,372.119 256,372.119   "/></g><line fill="none" x1="140.413" x2="140.329" y1="372.096" y2="372.012"/></g></svg>