<?xml version="1.0" ?><!DOCTYPE svg  PUBLIC '-//W3C//DTD SVG 1.1//EN'  'http://www.w3.org/Graphics/SVG/1.1/DTD/svg11.dtd'><svg enable-background="new 0 0 512 512" height="512px" id="Layer_1" version="1.1" viewBox="0 0 512 512" width="512px" xml:space="preserve" xmlns="http://www.w3.org/2000/svg" xmlns:xlink="http://www.w3.org/1999/xlink"><g><path d="M255.933,21.581c8.046,0,14.499,6.522,14.499,14.567c0,6.741-5.037,12.41-11.255,14.072L271,66.36v16.186   c-6,0-11.869,5.314-11.869,11.869c0,6.556,5.869,11.869,11.869,11.869V201h17.371l0.311-0.017l61.738-62.15   c2.318,2.317,5.355,3.405,8.393,3.405c3.038,0,6.076-1.195,8.394-3.513c4.635-4.635,4.635-12.168,0-16.803l11.444-11.454   l20.193-2.638c-3.223-5.571-2.451-12.82,2.315-17.587c2.844-2.845,6.571-4.268,10.3-4.268c3.727,0,7.456,1.422,10.301,4.267   c5.688,5.689,5.688,14.914,0,20.603c-2.846,2.845-6.573,4.268-10.302,4.268c-2.519,0-5.038-0.65-7.284-1.949l-2.633,20.202   l-11.445,11.462c-2.31-2.31-5.334-3.46-8.36-3.46c-3.048,0-6.1,1.168-8.426,3.494c-4.636,4.635-4.636,12.218,0,16.853   l-67.88,68.338L311.404,241h94.311c0,6,5.314,11.869,11.87,11.869S429.454,247,429.454,241h16.186l16.142,11.823   c1.66-6.217,7.33-11.229,14.071-11.229c8.045,0,14.567,6.508,14.567,14.554c0,8.045-6.522,14.594-14.567,14.594   c-6.741,0-12.411-4.328-14.071-10.545L445.64,273h-16.186c0-7-5.313-11.869-11.869-11.869S405.715,266,405.715,273h-94.311   l-5.975,9.947l67.88,67.541c-4.636,4.636-4.636,12.117,0,16.752c2.317,2.318,5.355,3.459,8.394,3.459   c3.037,0,6.074-1.166,8.393-3.484l11.445,11.44l2.633,20.19c2.248-1.299,4.768-1.951,7.288-1.951   c3.727,0.001,7.454,1.422,10.298,4.266c5.688,5.688,5.688,14.912,0,20.602c-2.846,2.846-6.574,4.268-10.303,4.268   c-3.727,0-7.455-1.422-10.298-4.266c-4.767-4.767-5.538-12.01-2.315-17.581l-20.193-2.625l-11.444-11.429   c4.635-4.635,4.635-12.116,0-16.752c-2.301-2.301-5.312-3.443-8.327-3.443c-3.059,0-6.125,1.177-8.459,3.512l-61.738-61.429   L288.371,313H271v93.255c-6,0-11.869,5.313-11.869,11.87c0,6.555,5.869,11.869,11.869,11.869v18.344l-11.803,13.453   c6.198,1.675,11.174,7.334,11.174,14.062c0,8.046-6.474,14.567-14.52,14.567c-8.045,0-14.594-6.521-14.594-14.567   c0-6.728,4.31-12.387,10.507-14.062L239,448.338v-18.344c7,0,11.869-5.314,11.869-11.869c0-6.557-4.869-11.87-11.869-11.87V313   h-15.371l-0.311-0.983l-62.12,61.763c-2.318-2.318-5.355-3.521-8.393-3.521c-3.038,0-6.075,1.137-8.393,3.454   c-4.636,4.636-4.636,12.14,0,16.774l-12.971,12.966l-18.267,0.758c3.198,5.567,2.422,12.795-2.335,17.551   c-2.845,2.846-6.573,4.267-10.301,4.267c-3.728,0-7.456-1.423-10.3-4.267c-5.688-5.689-5.688-14.91,0-20.6   c2.843-2.842,6.566-4.262,10.292-4.262c2.509,0,5.019,0.645,7.259,1.932l0.761-18.258l12.971-12.953   c2.326,2.326,5.377,3.493,8.426,3.493c3.026,0,6.051-1.15,8.359-3.46c4.636-4.635,4.636-12.082,0-16.719l68.261-67.988L200.596,273   h-94.851c0-7-5.314-11.869-11.869-11.869c-6.556,0-11.87,4.869-11.87,11.869H63.663l-13.454-12.769   c-1.675,6.198-7.334,10.438-14.062,10.438c-8.045,0-14.567-6.523-14.567-14.568s6.522-14.517,14.567-14.517   c6.728,0,12.387,5.011,14.062,11.209L63.663,241h18.343c0,6,5.314,11.869,11.87,11.869c6.555,0,11.869-5.869,11.869-11.869h94.851   l5.974-10.947l-68.261-68.692c4.636-4.636,4.636-12.231,0-16.867c-2.317-2.318-5.355-3.517-8.393-3.517s-6.075,1.139-8.393,3.457   l-12.971-12.981l-0.761-18.271c-2.239,1.287-4.747,1.928-7.255,1.928c-3.727,0-7.452-1.422-10.296-4.266   c-5.688-5.689-5.688-14.912,0-20.6c2.844-2.844,6.571-4.267,10.299-4.266c3.728,0,7.457,1.422,10.302,4.267   c4.757,4.757,5.533,11.989,2.335,17.555l18.267,0.77l12.971,12.987c-4.636,4.636-4.636,12.185,0,16.819   c2.334,2.335,5.399,3.511,8.459,3.511c3.015,0,6.025-1.143,8.327-3.443l62.12,62.54l0.311,0.017H239v-94.716   c7,0,11.869-5.313,11.869-11.869c0-6.555-4.869-11.869-11.869-11.869V66.36l12.807-16.141c-6.218-1.662-10.476-7.331-10.476-14.072   C241.331,28.103,247.888,21.581,255.933,21.581 M255.933,0c-19.913,0-36.114,16.216-36.114,36.147c0,5.502,1.187,10.8,3.471,15.626   l-1.338,1.262C218.969,56.837,217,61.529,217,66.36v16.186c0,4.385,1.308,8.464,3.555,11.869   c-2.247,3.405-3.555,7.484-3.555,11.869v58.225L176.128,123.2c-3.002-3.008-6.627-5.04-10.728-5.889   c-0.805-4.031-2.682-7.877-5.804-11.004l-12.928-12.988c-3.409-3.414-7.829-5.574-12.583-6.166   c-1.774-4.464-4.445-8.619-7.995-12.168c-6.828-6.828-15.9-10.589-25.556-10.589c-9.654,0-18.729,3.759-25.556,10.586   c-6.828,6.828-10.586,15.905-10.586,25.56c0,9.655,3.761,18.732,10.588,25.56c3.529,3.528,7.66,6.237,12.16,8.031   c0.596,4.74,2.751,9.167,6.153,12.568l12.971,12.971c3.005,3.005,6.805,5.032,10.905,5.877c0.816,3.984,2.766,7.896,5.85,10.992   L165.197,219h-59.452c-4.385,0-8.464,1.308-11.869,3.554C90.47,220.308,86.392,219,82.006,219H63.663   c-4.685,0-9.224,1.41-12.944,4.199c-4.494-2-9.438-3.155-14.571-3.155C16.216,220.044,0,236.201,0,256.096   c0,19.913,16.216,36.1,36.147,36.1c4.854,0,9.55-0.583,13.903-2.37c3.835,3.117,8.639,5.175,13.612,5.175h18.343   c4.385,0,8.464-1.307,11.87-3.555c3.405,2.248,7.484,3.555,11.869,3.555h58.756l-41.438,41.008   c-2.987,2.982-5.011,6.575-5.87,10.643c-4.001,0.815-7.815,2.686-10.92,5.787l-12.971,12.91c-3.405,3.4-5.563,7.806-6.161,12.545   c-4.501,1.794-8.632,4.492-12.161,8.021c-14.093,14.094-14.093,37.02,0,51.113c6.827,6.826,15.905,10.584,25.56,10.584   c9.655,0,18.733-3.762,25.561-10.589c3.546-3.547,6.227-7.698,8.001-12.157c4.751-0.592,9.191-2.748,12.6-6.158l12.971-12.971   c3.005-3.004,5.032-6.805,5.877-10.904c3.983-0.816,7.433-2.766,10.528-5.848L217,347.895v58.36c0,4.386,1.308,8.464,3.555,11.87   c-2.247,3.404-3.555,7.483-3.555,11.869v18.344c0,4.955,2.052,9.742,5.149,13.57c-1.817,4.395-2.605,9.148-2.605,13.944   c0,19.933,16.333,36.147,36.302,36.147c19.95,0,36.225-16.215,36.225-36.147c0-5.159-1.208-10.126-3.24-14.64   c2.756-3.708,4.17-8.221,4.17-12.875v-18.344c0-4.386-1.307-8.465-3.555-11.869c2.248-3.406,3.555-7.484,3.555-11.87v-59.393   l42.064,41.858c3.104,3.098,6.972,5.054,10.971,5.868c0.858,4.065,2.908,7.831,5.895,10.812l11.458,11.428   c3.366,3.361,7.756,5.517,12.474,6.13l1.393,0.181c1.74,5.113,4.641,9.883,8.644,13.885c6.827,6.827,15.903,10.586,25.56,10.586   c9.654,0,18.733-3.76,25.561-10.587c14.095-14.095,14.095-37.028,0.002-51.122c-3.979-3.979-8.725-6.918-13.901-8.675l-0.179-1.366   c-0.615-4.72-2.773-9.104-6.14-12.469l-11.444-11.445c-3.102-3.1-6.911-5.061-10.908-5.879c-0.848-4.115-2.887-7.58-5.908-10.59   L347.553,295h58.162c4.386,0,8.465-1.307,11.87-3.555c3.405,2.248,7.483,3.555,11.869,3.555h16.186   c4.837,0,9.532-1.973,13.335-4.961l1.221-1.133c4.775,2.285,10.101,3.463,15.657,3.463c19.933,0,36.147-16.289,36.147-36.258   c0-19.969-16.215-36.237-36.147-36.237c-5.807,0-11.368,1.402-16.313,3.942l-0.924-0.587c-3.74-2.815-8.295-4.229-12.976-4.229   h-16.186c-4.386,0-8.464,1.308-11.869,3.554c-3.405-2.247-7.484-3.554-11.87-3.554h-58.861l41.731-41.927   c3.12-3.126,5.081-7.027,5.886-11.056c4.098-0.848,7.895-2.906,10.896-5.912l11.445-11.476c3.359-3.364,5.515-7.751,6.128-12.466   l0.18-1.379c5.177-1.758,9.92-4.697,13.9-8.676c14.094-14.095,14.094-37.028,0-51.123c-6.828-6.828-15.905-10.588-25.561-10.589   c-9.654-0.001-18.732,3.759-25.561,10.587c-4.006,4.005-6.906,8.779-8.646,13.896l-1.393,0.182   c-4.719,0.615-9.103,2.774-12.469,6.14l-11.444,11.444c-3.101,3.102-5.062,6.911-5.88,10.909   c-4.116,0.848-8.043,2.887-11.053,5.911L293,165.547v-59.263c0-4.385-1.307-8.464-3.555-11.869   C291.693,91.01,293,86.931,293,82.546V66.36c0-4.681-1.408-9.235-4.225-12.976l-0.702-1.009c2.495-4.922,3.911-10.452,3.911-16.228   C291.984,16.216,275.827,0,255.933,0L255.933,0z" fill="#022F32"/><g><g><g><path d="M272,82.546V66.36l-12.324-16.141c6.219-1.662,10.845-7.331,10.845-14.072      c0-8.045-6.476-14.567-14.521-14.567V490.42c8.045,0,14.566-6.521,14.566-14.567c0-6.728-4.654-12.387-10.852-14.062      L272,448.338v-18.344c-6.5,0-11.869-5.314-11.869-11.869c0-6.557,5.369-11.87,11.869-11.87V106.284      c-6.5,0-11.869-5.313-11.869-11.869C260.131,87.86,265.5,82.546,272,82.546z" fill="#19C0F0"/><path d="M240.933,36.147c0,6.741,4.423,12.41,10.641,14.072L239,66.36v16.186c7,0,11.869,5.314,11.869,11.869      c0,6.556-4.869,11.869-11.869,11.869v299.971c7,0,11.869,5.313,11.869,11.87c0,6.555-4.869,11.869-11.869,11.869v18.344      l12.785,13.453c-6.197,1.675-11.056,7.334-11.056,14.062c0,8.046,7.271,14.567,14.271,14.567V21.581      C248,21.581,240.933,28.103,240.933,36.147z" fill="#FFFFFF"/></g><g><path d="M429.454,272h16.186l16.142-12.324c1.66,6.219,7.33,10.845,14.071,10.845      c8.045,0,14.567-6.476,14.567-14.521H21.581c0,8.045,6.522,14.566,14.567,14.566c6.728,0,12.387-4.654,14.062-10.852L63.663,272      h18.343c0-6.5,5.314-11.869,11.87-11.869c6.555,0,11.869,5.369,11.869,11.869h299.97c0-6.5,5.314-11.869,11.87-11.869      S429.454,265.5,429.454,272z" fill="#19C0F0"/><path d="M475.853,241.933c-6.741,0-12.411,4.923-14.071,11.141L445.64,241h-16.186      c0,6-5.313,11.869-11.869,11.869S405.715,247,405.715,241h-299.97c0,6-5.314,11.869-11.869,11.869      c-6.556,0-11.87-5.869-11.87-11.869H63.663l-13.454,11.785c-1.675-6.198-7.334-10.556-14.062-10.556      c-8.045,0-14.567,6.771-14.567,14.771H490.42C490.42,249,483.897,241.933,475.853,241.933z" fill="#FFFFFF"/></g><g><path d="M390.096,144.794l11.445-11.444l2.633-20.193c5.572,3.222,12.818,2.452,17.586-2.315      c5.688-5.688,5.688-14.911,0-20.601L90.24,421.76c5.689,5.688,14.912,5.688,20.601,0c4.757-4.758,5.533-11.984,2.335-17.551      l18.267-0.762l12.971-12.971c-4.636-4.635-4.636-12.15,0-16.785c4.635-4.636,12.15-4.636,16.786,0L373.31,161.58      c-4.636-4.636-4.636-12.15,0-16.786C377.945,140.159,385.46,140.159,390.096,144.794z" fill="#19C0F0"/><path d="M401.159,90.24c-4.767,4.767-5.538,12.014-2.315,17.586l-20.193,2.634l-11.444,11.444      c4.635,4.636,4.635,12.151,0,16.786c-4.636,4.635-12.151,4.635-16.786,0l-212.111,212.11c4.636,4.636,4.636,12.151,0,16.787      c-4.635,4.635-12.15,4.635-16.785,0l-12.971,12.971l-0.761,18.266c-5.566-3.198-12.793-2.423-17.551,2.334      c-5.688,5.689-5.688,14.912,0,20.602L421.76,90.24C416.07,84.552,406.848,84.552,401.159,90.24z" fill="#FFFFFF"/></g><g><path d="M367.206,390.096l11.444,11.445l20.193,2.633c-3.223,5.572-2.451,12.818,2.315,17.586      c5.688,5.688,14.911,5.688,20.601,0L90.24,90.24c-5.688,5.689-5.688,14.912,0,20.601c4.757,4.757,11.984,5.533,17.551,2.335      l0.761,18.267l12.971,12.971c4.635-4.636,12.15-4.636,16.785,0c4.636,4.635,4.636,12.15,0,16.786L350.42,373.31      c4.635-4.636,12.15-4.636,16.786,0C371.841,377.945,371.841,385.46,367.206,390.096z" fill="#19C0F0"/><path d="M421.76,401.158c-4.768-4.766-12.014-5.537-17.586-2.314l-2.633-20.193l-11.445-11.444      c-4.636,4.635-12.15,4.635-16.786,0c-4.636-4.636-4.636-12.151,0-16.786L161.199,138.309c-4.635,4.636-12.151,4.636-16.786,0      c-4.636-4.635-4.636-12.15,0-16.785l-12.971-12.971l-18.267-0.761c3.198-5.566,2.422-12.793-2.335-17.551      c-5.688-5.688-14.911-5.688-20.601,0l331.52,331.52C427.448,416.07,427.447,406.848,421.76,401.158z" fill="#FFFFFF"/></g></g><polygon fill="#19C0F0" points="223.629,312 191.258,256 223.629,200 288.371,200 320.742,256 288.371,312   "/><polygon fill="#FFFFFF" points="239.814,284 223.629,256 239.814,228 272.186,228 288.371,256 272.186,284   "/></g></g></svg>