<?xml version="1.0" ?><!DOCTYPE svg  PUBLIC '-//W3C//DTD SVG 1.1//EN'  'http://www.w3.org/Graphics/SVG/1.1/DTD/svg11.dtd'><svg enable-background="new 0 0 82 38" height="38px" id="Layer_1" version="1.1" viewBox="0 0 82 38" width="82px" xml:space="preserve" xmlns="http://www.w3.org/2000/svg" xmlns:xlink="http://www.w3.org/1999/xlink"><g><path d="M55.584,14H53v10h2.889c1.814,0,3.209-0.213,4.185-1.129s1.463-2.125,1.463-3.872   c0-1.746-0.487-2.868-1.463-3.809C59.098,14.249,57.602,14,55.584,14z" fill="#231F20"/><path d="M28.123,14.462C27.503,14.03,26.541,14,25.235,14H23v6h2.642c1.323,0,2.222-0.465,2.697-0.999   c0.475-0.534,0.712-1.319,0.712-2.346C29.051,15.629,28.741,14.895,28.123,14.462z" fill="#231F20"/><path d="M77,0H5C2.239,0,0,2.238,0,5v28c0,2.762,2.239,5,5,5h72c2.762,0,5-2.238,5-5V5C82,2.238,79.762,0,77,0z    M31.201,21.493C29.92,22.511,27.965,23,25.337,23H23v5h-4V10h6.286c2.73,0,4.719,0.64,5.965,1.699s1.87,2.732,1.87,4.929   S32.481,20.476,31.201,21.493z M45.752,26.715c-1.196,0.992-2.77,1.488-4.72,1.488c-2.815,0-5.351-1.043-7.606-3.129l2.366-2.9   c1.916,1.68,3.688,2.52,5.316,2.52c0.729,0,1.302-0.157,1.718-0.471c0.415-0.314,0.623-0.738,0.623-1.272s-0.221-0.958-0.662-1.272   c-0.441-0.313-1.314-0.631-2.62-0.953c-2.069-0.492-3.583-1.132-4.541-1.921c-0.958-0.789-1.437-2.026-1.437-3.714   s0.606-2.989,1.819-3.905c1.212-0.916,2.726-1.374,4.541-1.374c1.187,0,2.375,0.204,3.562,0.611   c1.187,0.407,2.222,0.983,3.104,1.729l-2.01,2.9c-1.544-1.17-3.138-1.755-4.782-1.755c-0.662,0-1.183,0.157-1.564,0.471   c-0.382,0.314-0.573,0.729-0.573,1.246c0,0.518,0.233,0.929,0.7,1.234c0.466,0.305,1.543,0.666,3.23,1.081   c1.688,0.416,2.998,1.039,3.931,1.87s1.399,2.044,1.399,3.638S46.947,25.723,45.752,26.715z M63.05,25.584   C61.396,27.195,58.873,28,55.481,28H49V10h6.686c3.17,0,5.604,0.885,7.301,2.437c1.695,1.552,2.543,3.765,2.543,6.529   C65.529,21.73,64.703,23.973,63.05,25.584z" fill="#231F20"/></g></svg>